<svg xmlns="http://www.w3.org/2000/svg" viewBox="0 0 800 600">
  <rect width="800" height="600" fill="#1e3a8a"></rect>
  
  
  <rect x="100" y="400" width="600" height="150" fill="#64748b" rx="8"></rect>
  <rect x="120" y="550" width="50" height="50" fill="#475569"></rect>
  <rect x="630" y="550" width="50" height="50" fill="#475569"></rect>
  
  
  <rect x="250" y="250" width="300" height="180" fill="#1f2937" rx="8"></rect>
  <rect x="270" y="270" width="260" height="140" fill="#3b82f6" rx="4"></rect>
  <rect x="380" y="430" width="40" height="20" fill="#1f2937" rx="4"></rect>
  <rect x="350" y="450" width="100" height="10" fill="#1f2937" rx="5"></rect>
  
  
  <rect x="290" y="290" width="220" height="15" fill="#60a5fa" opacity="0.8" rx="2"></rect>
  <rect x="290" y="315" width="180" height="15" fill="#60a5fa" opacity="0.6" rx="2"></rect>
  <rect x="290" y="340" width="200" height="15" fill="#60a5fa" opacity="0.7" rx="2"></rect>
  <rect x="290" y="365" width="160" height="15" fill="#60a5fa" opacity="0.5" rx="2"></rect>
  
  
  <ellipse cx="600" cy="450" rx="30" ry="15" fill="#8b4513"></ellipse>
  <rect x="570" y="420" width="60" height="30" fill="#a0522d" rx="4"></rect>
  <ellipse cx="600" cy="420" rx="30" ry="10" fill="#8b4513"></ellipse>
  
  
  <rect x="230" y="460" width="340" height="60" fill="#374151" rx="4"></rect>
  <rect x="240" y="470" width="25" height="15" fill="#4b5563" rx="2"></rect>
  <rect x="275" y="470" width="25" height="15" fill="#4b5563" rx="2"></rect>
  <rect x="310" y="470" width="25" height="15" fill="#4b5563" rx="2"></rect>
  
  
  <circle cx="150" cy="200" r="50" fill="#10b981" opacity="0.9"></circle>
  <text x="150" y="215" font-family="Arial, sans-serif" font-size="40" fill="white" text-anchor="middle" font-weight="bold">✓</text>
  
  <text x="400" y="560" font-family="Arial, sans-serif" font-size="28" fill="#60a5fa" text-anchor="middle" font-weight="bold">24/7 Support</text>
</svg>